<svg width="70" height="53" viewBox="0 0 70 53" fill="none" xmlns="http://www.w3.org/2000/svg">
<path d="M37.8721 20.9573L38.6042 20.2046C38.4082 20.014 38.1456 19.9073 37.8721 19.9073V20.9573ZM33.9626 20.9573V19.9073C33.7377 19.9073 33.5188 19.9795 33.338 20.1133L33.9626 20.9573ZM29.3537 23.603L29.7093 24.591L29.7173 24.5881L29.3537 23.603ZM22.7182 21.871L21.934 21.1728C21.571 21.5805 21.581 22.1983 21.957 22.5941L22.7182 21.871ZM27.0223 17.1505L27.7895 17.8674L27.7926 17.864L27.0223 17.1505ZM31.1829 12.6585L30.4734 11.8845C30.4523 11.9038 30.432 11.924 30.4126 11.945L31.1829 12.6585ZM46.5341 9.99377L45.7698 9.27372L45.7698 9.27372L46.5341 9.99377ZM48.2667 9.68598C48.6644 9.26391 48.6446 8.59938 48.2225 8.20171C47.8004 7.80404 47.1359 7.82382 46.7382 8.24589L48.2667 9.68598ZM59.6256 25.4303L60.3876 26.1527L60.3898 26.1504L59.6256 25.4303ZM48.6143 40.943L47.9089 41.7207L47.9251 41.7354L47.9419 41.7494L48.6143 40.943ZM40.5394 31.4699C40.1326 31.0566 39.4678 31.0513 39.0545 31.4581C38.6412 31.8648 38.6359 32.5296 39.0427 32.9429L40.5394 31.4699ZM50.6118 41.9603C50.8267 41.4217 50.5643 40.8108 50.0257 40.5959C49.4871 40.3809 48.8763 40.6433 48.6614 41.1819L50.6118 41.9603ZM43.1087 44.331L42.4033 45.1087L42.427 45.1302L42.4519 45.1502L43.1087 44.331ZM37.4146 37.328C37.0055 36.9171 36.3407 36.9156 35.9297 37.3248C35.5188 37.7339 35.5173 38.3988 35.9265 38.8097L37.4146 37.328ZM45.2971 45.5377C45.543 45.0125 45.3166 44.3874 44.7915 44.1415C44.2663 43.8956 43.6412 44.1219 43.3953 44.6471L45.2971 45.5377ZM37.8363 47.6049L38.5106 46.8L38.5084 46.7981L37.8363 47.6049ZM34.414 42.7462C34.0223 42.3186 33.3581 42.2895 32.9305 42.6813C32.5029 43.073 32.4739 43.7372 32.8656 44.1648L34.414 42.7462ZM39.6079 48.4891C39.8124 47.9464 39.5383 47.3407 38.9956 47.1362C38.453 46.9317 37.8473 47.2058 37.6428 47.7485L39.6079 48.4891ZM33.048 50.6503L32.4664 51.5245L32.4682 51.5258L33.048 50.6503ZM30.4557 47.4735C29.9942 47.1223 29.3354 47.2118 28.9843 47.6734C28.6332 48.1349 28.7227 48.7936 29.1842 49.1448L30.4557 47.4735ZM16.2622 35.0234L17.0449 34.3235L17.0386 34.3166L16.2622 35.0234ZM12.532 34.9473L13.2782 35.686L13.2841 35.68L13.2899 35.6739L12.532 34.9473ZM11.0435 36.451L10.2973 35.7123L10.2913 35.7183L10.2855 35.7243L11.0435 36.451ZM10.9897 40.41L11.7662 39.7032L11.7601 39.6967L10.9897 40.41ZM14.7378 40.4862L13.9871 39.752L13.9863 39.7529L14.7378 40.4862ZM16.2084 38.9825L16.959 39.7166L16.9598 39.7158L16.2084 38.9825ZM22.4492 36.4319L23.2259 35.7254L23.2257 35.7251L22.4492 36.4319ZM18.7191 36.3558L19.4742 37.0854L19.477 37.0824L18.7191 36.3558ZM14.3971 40.8288L13.642 40.0992L13.6391 40.1021L14.3971 40.8288ZM14.3433 44.7879L15.1198 44.081L15.1137 44.0745L14.3433 44.7879ZM18.0914 44.864L18.8429 45.5973L18.8464 45.5936L18.0914 44.864ZM22.3954 40.41L23.1505 41.1397L23.1534 41.1367L22.3954 40.41ZM26.5022 40.1055L27.2849 39.4055L27.2846 39.4052L26.5022 40.1055ZM22.772 39.9913L22.0205 39.2579L22.0161 39.2625L22.772 39.9913ZM18.8087 44.1026L19.5539 44.8423L19.5593 44.8369L19.5647 44.8313L18.8087 44.1026ZM22.4672 48.1569L23.2189 48.89L23.2231 48.8856L22.4672 48.1569ZM26.4126 44.0646L25.6674 43.3248L25.662 43.3303L25.6566 43.3358L26.4126 44.0646ZM29.0847 45.2447L29.8614 44.5381L29.8612 44.5379L29.0847 45.2447ZM25.3545 45.1875L26.1057 45.9211L26.1123 45.9144L26.1187 45.9076L25.3545 45.1875ZM24.3323 46.2344L23.581 45.5008L23.5743 45.5078L24.3323 46.2344ZM24.2964 50.1935L25.0729 49.4867L25.0668 49.4801L24.2964 50.1935ZM28.0445 50.2316L27.2935 49.4978L27.2868 49.5046L27.2803 49.5115L28.0445 50.2316ZM29.0488 49.2037L29.7998 49.9375L29.8065 49.9307L29.813 49.9238L29.0488 49.2037ZM49.6469 28.6066C50.2133 28.4821 50.5714 27.9219 50.4468 27.3556C50.3222 26.7892 49.7621 26.4311 49.1957 26.5557L49.6469 28.6066ZM18.7133 2L19.4776 1.27996C19.2792 1.06938 19.0027 0.95 18.7133 0.95C18.424 0.95 18.1475 1.06938 17.9491 1.27996L18.7133 2ZM23.9759 7.58545L24.7401 8.30549C25.1212 7.90108 25.1212 7.26982 24.7401 6.86541L23.9759 7.58545ZM7.26255 25.3243L6.49833 26.0443C6.69673 26.2549 6.97323 26.3743 7.26255 26.3743C7.55187 26.3743 7.82837 26.2549 8.02677 26.0443L7.26255 25.3243ZM2 19.7388L1.23578 19.0188C0.854741 19.4232 0.854741 20.0545 1.23578 20.4589L2 19.7388ZM68 19.5608L68.7642 20.2808C69.1453 19.8764 69.1453 19.2452 68.7642 18.8407L68 19.5608ZM62.7375 25.1462L61.9732 25.8663C62.1716 26.0769 62.4481 26.1962 62.7375 26.1962C63.0268 26.1962 63.3033 26.0769 63.5017 25.8663L62.7375 25.1462ZM46.3665 7.77078L45.6022 7.05074C45.2212 7.45515 45.2212 8.08641 45.6022 8.49083L46.3665 7.77078ZM51.629 2.18534L52.3932 1.46529C52.1948 1.25472 51.9183 1.13534 51.629 1.13534C51.3397 1.13534 51.0632 1.25472 50.8648 1.46529L51.629 2.18534ZM43.9664 25.4199L38.6042 20.2046L37.14 21.71L42.5022 26.9253L43.9664 25.4199ZM37.8721 19.9073H33.9626V22.0073H37.8721V19.9073ZM33.9626 20.9573C33.338 20.1133 33.3381 20.1132 33.3382 20.1132C33.3382 20.1132 33.3382 20.1131 33.3382 20.1131C33.3383 20.1131 33.3383 20.1131 33.3382 20.1131C33.3381 20.1132 33.3379 20.1134 33.3375 20.1137C33.3367 20.1143 33.3353 20.1153 33.3333 20.1168C33.3293 20.1197 33.3229 20.1244 33.3143 20.1307C33.297 20.1433 33.2706 20.1625 33.2358 20.1875C33.1662 20.2376 33.0632 20.311 32.9327 20.4018C32.6714 20.5837 32.3015 20.8342 31.8699 21.1075C30.9917 21.6635 29.9148 22.2766 28.99 22.618L29.7173 24.5881C30.855 24.1681 32.0825 23.4584 32.9932 22.8818C33.456 22.5889 33.8517 22.3208 34.1322 22.1255C34.2727 22.0278 34.3848 21.948 34.4625 21.892C34.5014 21.864 34.5317 21.842 34.5527 21.8267C34.5632 21.819 34.5714 21.813 34.5772 21.8087C34.5801 21.8066 34.5824 21.8049 34.584 21.8037C34.5849 21.8031 34.5855 21.8026 34.5861 21.8022C34.5863 21.802 34.5866 21.8018 34.5867 21.8017C34.5868 21.8016 34.5869 21.8016 34.587 21.8015C34.5871 21.8014 34.5872 21.8014 33.9626 20.9573ZM28.9981 22.6151C28.1086 22.9352 27.2013 23.0461 26.3049 22.8585C25.4153 22.6723 24.4558 22.1755 23.4795 21.1478L21.957 22.5941C23.1866 23.8886 24.5136 24.629 25.8746 24.9139C27.2289 25.1974 28.5364 25.0132 29.7093 24.591L28.9981 22.6151ZM23.5025 22.5691C24.5735 21.3661 25.6455 20.1904 26.4503 19.3148C26.8526 18.8772 27.1877 18.515 27.4221 18.2623C27.5394 18.136 27.6314 18.0371 27.694 17.9698C27.7253 17.9362 27.7493 17.9105 27.7654 17.8933C27.7734 17.8846 27.7795 17.8781 27.7835 17.8738C27.7856 17.8716 27.7871 17.87 27.7881 17.8689C27.7886 17.8684 27.7889 17.868 27.7892 17.8678C27.7893 17.8676 27.7894 17.8675 27.7894 17.8675C27.7895 17.8674 27.7895 17.8674 27.7895 17.8674C27.7895 17.8674 27.7895 17.8674 27.0223 17.1505C26.2551 16.4337 26.2551 16.4337 26.2551 16.4337C26.255 16.4337 26.255 16.4338 26.255 16.4338C26.2549 16.4339 26.2548 16.434 26.2546 16.4342C26.2544 16.4345 26.2539 16.4349 26.2534 16.4355C26.2523 16.4367 26.2507 16.4384 26.2486 16.4406C26.2444 16.4452 26.2381 16.4519 26.2298 16.4607C26.2134 16.4784 26.189 16.5045 26.1573 16.5386C26.0938 16.6068 26.0009 16.7066 25.8827 16.834C25.6464 17.0887 25.309 17.4533 24.9043 17.8937C24.0951 18.774 23.015 19.9585 21.934 21.1728L23.5025 22.5691ZM27.7926 17.864L31.9532 13.372L30.4126 11.945L26.252 16.437L27.7926 17.864ZM31.8924 13.4325C32.2127 13.1389 32.4213 13.0268 32.6046 12.9675C32.8089 12.9014 33.0712 12.871 33.5681 12.871V10.771C33.0248 10.771 32.489 10.7977 31.9581 10.9695C31.406 11.1482 30.9422 11.4548 30.4734 11.8845L31.8924 13.4325ZM33.5681 12.871H40.7415V10.771H33.5681V12.871ZM40.7415 12.871C41.5165 12.871 42.6887 12.795 43.8789 12.5059C45.048 12.2219 46.3687 11.7004 47.2983 10.7138L45.7698 9.27372C45.2467 9.82891 44.3885 10.221 43.3832 10.4652C42.3989 10.7043 41.4012 10.771 40.7415 10.771V12.871ZM47.2983 10.7138L48.2667 9.68598L46.7382 8.24589L45.7698 9.27372L47.2983 10.7138ZM53.6865 37.3178C57.1219 33.9754 58.1725 31.8126 58.7025 30.0174C59.2263 28.2432 59.1514 27.4566 60.3876 26.1527L58.8636 24.7079C57.1765 26.4875 57.1017 28.023 56.6884 29.4228C56.2814 30.8014 55.4579 32.6644 52.2221 35.8126L53.6865 37.3178ZM60.3898 26.1504L62.0755 24.3612L60.5471 22.9211L58.8613 24.7103L60.3898 26.1504ZM43.2343 26.1726C42.4528 26.8739 42.4529 26.874 42.4529 26.8741C42.453 26.8741 42.4531 26.8742 42.4532 26.8744C42.4534 26.8746 42.4538 26.875 42.4543 26.8755C42.4552 26.8766 42.4566 26.8781 42.4584 26.8802C42.4621 26.8843 42.4676 26.8904 42.4748 26.8985C42.4893 26.9145 42.5107 26.9384 42.5387 26.9696C42.5948 27.0319 42.6772 27.1235 42.7827 27.2407C42.9939 27.4751 43.2978 27.8121 43.6693 28.2226C44.4122 29.0435 45.4255 30.159 46.5072 31.3368C48.6524 33.6728 51.1191 36.3123 52.2466 37.3409L53.6619 35.7894C52.6195 34.8385 50.2262 32.2818 48.0539 29.9164C46.9768 28.7435 45.967 27.632 45.2264 26.8136C44.8562 26.4044 44.5533 26.0687 44.3431 25.8353C44.238 25.7186 44.1561 25.6275 44.1005 25.5656C44.0726 25.5347 44.0514 25.5111 44.0372 25.4952C44.03 25.4873 44.0247 25.4813 44.0211 25.4773C44.0193 25.4753 44.0179 25.4738 44.017 25.4728C44.0166 25.4723 44.0163 25.4719 44.016 25.4717C44.0159 25.4716 44.0159 25.4715 44.0158 25.4714C44.0158 25.4714 44.0157 25.4713 43.2343 26.1726ZM52.2461 37.3404C52.5139 37.585 52.6645 37.9629 52.6443 38.462C52.6238 38.9693 52.4233 39.5242 52.0865 39.968C51.7509 40.4102 51.3354 40.674 50.9197 40.7394C50.5306 40.8007 49.9794 40.7142 49.2868 40.1366L47.9419 41.7494C49.0068 42.6375 50.1503 42.9864 51.2463 42.8139C52.3157 42.6455 53.1758 42.0064 53.7593 41.2375C54.3416 40.4703 54.7037 39.5061 54.7426 38.5471C54.7818 37.5799 54.4886 36.5446 53.6624 35.7899L52.2461 37.3404ZM49.3198 40.1653C48.2941 39.2349 46.1088 37.0717 44.1588 35.119C43.1885 34.1474 42.2835 33.2349 41.621 32.5653C41.2898 32.2306 41.0192 31.9566 40.8316 31.7664C40.7377 31.6712 40.6646 31.5971 40.615 31.5467C40.5902 31.5215 40.5713 31.5023 40.5585 31.4894C40.5522 31.4829 40.5474 31.478 40.5442 31.4748C40.5426 31.4731 40.5413 31.4719 40.5405 31.4711C40.5401 31.4707 40.5399 31.4704 40.5397 31.4702C40.5396 31.4701 40.5395 31.47 40.5394 31.47C40.5394 31.4699 40.5394 31.4699 39.791 32.2064C39.0427 32.9429 39.0427 32.943 39.0427 32.943C39.0428 32.9431 39.0429 32.9432 39.043 32.9433C39.0432 32.9435 39.0435 32.9438 39.0439 32.9442C39.0448 32.9451 39.046 32.9463 39.0476 32.948C39.0509 32.9513 39.0558 32.9563 39.0622 32.9628C39.0751 32.9759 39.0941 32.9952 39.1191 33.0206C39.169 33.0712 39.2424 33.1457 39.3366 33.2411C39.5249 33.432 39.7962 33.7068 40.1282 34.0423C40.7922 34.7135 41.6996 35.6283 42.6729 36.6029C44.6099 38.5426 46.8363 40.7477 47.9089 41.7207L49.3198 40.1653ZM48.6614 41.1819C48.3859 41.8723 47.6812 43.0317 46.7552 43.6973C46.3093 44.0178 45.8624 44.1884 45.4178 44.1935C44.9861 44.1985 44.4361 44.0494 43.7656 43.5118L42.4519 45.1502C43.4313 45.9355 44.4415 46.305 45.4422 46.2934C46.4301 46.2819 47.2879 45.9005 47.9808 45.4025C49.3323 44.4312 50.2417 42.8878 50.6118 41.9603L48.6614 41.1819ZM43.8142 43.5533C42.7833 42.6182 41.1883 41.0671 39.8398 39.7383C39.168 39.0763 38.5615 38.4734 38.1228 38.0361C37.9036 37.8175 37.7263 37.6403 37.604 37.5178C37.5429 37.4566 37.4954 37.409 37.4633 37.3768C37.4473 37.3607 37.4351 37.3485 37.4269 37.3403C37.4228 37.3362 37.4197 37.3331 37.4177 37.331C37.4166 37.33 37.4159 37.3292 37.4154 37.3287C37.4151 37.3285 37.4149 37.3283 37.4148 37.3282C37.4147 37.3281 37.4147 37.3281 37.4147 37.328C37.4146 37.328 37.4146 37.328 36.6706 38.0688C35.9265 38.8097 35.9265 38.8097 35.9266 38.8098C35.9266 38.8098 35.9267 38.8099 35.9267 38.8099C35.9269 38.8101 35.9271 38.8103 35.9274 38.8106C35.9279 38.8111 35.9287 38.8119 35.9298 38.813C35.9319 38.8152 35.9351 38.8183 35.9393 38.8225C35.9477 38.8309 35.9601 38.8434 35.9763 38.8597C36.0088 38.8923 36.0567 38.9402 36.1183 39.0019C36.2415 39.1253 36.4197 39.3035 36.6401 39.5232C37.0808 39.9626 37.6904 40.5684 38.3658 41.2341C39.7119 42.5605 41.3359 44.1405 42.4033 45.1087L43.8142 43.5533ZM43.3953 44.6471C42.7061 46.1187 41.8312 46.9955 41.0166 47.3353C40.2789 47.6429 39.4385 47.5775 38.5106 46.8001L37.1619 48.4097C38.6192 49.6307 40.2806 49.9175 41.8249 49.2735C43.2923 48.6615 44.4798 47.2828 45.2971 45.5377L43.3953 44.6471ZM38.5084 46.7981C37.7198 46.1412 36.7032 45.1379 35.865 44.2768C35.4502 43.8506 35.0866 43.467 34.8267 43.19C34.6969 43.0516 34.5931 42.94 34.5221 42.8633C34.4866 42.825 34.4593 42.7954 34.441 42.7755C34.4319 42.7656 34.425 42.7581 34.4204 42.7532C34.4182 42.7507 34.4165 42.7489 34.4154 42.7477C34.4149 42.7471 34.4145 42.7467 34.4142 42.7464C34.4141 42.7463 34.4141 42.7462 34.414 42.7462C34.414 42.7462 34.414 42.7462 34.414 42.7461C34.414 42.7461 34.414 42.7462 33.6398 43.4555C32.8656 44.1648 32.8657 44.1648 32.8657 44.1649C32.8657 44.1649 32.8658 44.165 32.8658 44.165C32.866 44.1652 32.8661 44.1653 32.8663 44.1655C32.8667 44.166 32.8672 44.1665 32.8679 44.1673C32.8693 44.1688 32.8712 44.1709 32.8738 44.1737C32.8789 44.1793 32.8865 44.1875 32.8962 44.1981C32.9158 44.2193 32.9444 44.2504 32.9813 44.2902C33.0551 44.3699 33.162 44.4848 33.2952 44.6269C33.5616 44.9108 33.9344 45.304 34.3602 45.7415C35.2033 46.6077 36.285 47.6791 37.1642 48.4116L38.5084 46.7981ZM37.6428 47.7485C37.28 48.711 36.5825 49.4769 35.8183 49.8584C35.0803 50.2268 34.3167 50.2311 33.6277 49.7749L32.4682 51.5258C33.8775 52.459 35.4543 52.3872 36.7562 51.7373C38.0319 51.1004 39.0739 49.9058 39.6079 48.4891L37.6428 47.7485ZM33.6296 49.7761C33.0522 49.3919 32.2632 48.8201 31.6074 48.3355C31.2819 48.095 30.9935 47.8791 30.7865 47.7234C30.6831 47.6456 30.6001 47.5829 30.5431 47.5397C30.5146 47.5181 30.4926 47.5015 30.4778 47.4902C30.4704 47.4846 30.4648 47.4804 30.4611 47.4776C30.4592 47.4761 30.4578 47.4751 30.4569 47.4744C30.4565 47.4741 30.4562 47.4738 30.456 47.4737C30.4558 47.4736 30.4558 47.4735 30.4557 47.4735C30.4557 47.4735 30.4557 47.4735 30.4557 47.4735C30.4557 47.4735 30.4557 47.4735 29.8199 48.3091C29.1842 49.1448 29.1842 49.1448 29.1842 49.1448C29.1842 49.1448 29.1843 49.1448 29.1843 49.1449C29.1844 49.1449 29.1845 49.145 29.1847 49.1451C29.1849 49.1454 29.1854 49.1457 29.1859 49.1461C29.1869 49.1469 29.1885 49.148 29.1905 49.1496C29.1945 49.1526 29.2005 49.1571 29.2082 49.163C29.2237 49.1748 29.2464 49.192 29.2757 49.2141C29.3342 49.2584 29.4189 49.3224 29.5242 49.4016C29.7347 49.56 30.028 49.7795 30.3594 50.0244C31.0172 50.5105 31.8422 51.1092 32.4664 51.5245L33.6296 49.7761ZM21.7747 9.83825C23.4613 11.6284 24.6934 12.1792 25.8305 12.667C26.8405 13.1003 27.7274 13.4638 29.0356 14.8609L30.5684 13.4255C28.9714 11.72 27.778 11.2174 26.6584 10.7371C25.6659 10.3113 24.719 9.90092 23.3031 8.39816L21.7747 9.83825ZM14.1211 33.6562C13.2993 32.784 12.9313 32.0454 12.7453 31.3759C12.5494 30.6711 12.537 29.9985 12.5029 29.1271C12.4699 28.2821 12.4143 27.2983 12.0433 26.2087C11.6691 25.1094 10.9975 23.9646 9.81707 22.7117L8.28862 24.1518C9.29606 25.2211 9.79237 26.1128 10.0554 26.8854C10.3217 27.6677 10.3725 28.391 10.4045 29.2091C10.4354 30.0008 10.4466 30.9473 10.722 31.9383C11.0072 32.9646 11.5583 33.9985 12.5927 35.0963L14.1211 33.6562ZM17.0386 34.3166C15.6185 32.7565 13.2465 32.6847 11.774 34.2206L13.2899 35.6739C13.8977 35.04 14.8613 35.0443 15.4857 35.7302L17.0386 34.3166ZM11.7857 34.2086L10.2973 35.7123L11.7897 37.1897L13.2782 35.686L11.7857 34.2086ZM10.2855 35.7243C8.87016 37.2006 8.81042 39.6019 10.2192 41.1234L11.7601 39.6967C11.1245 39.0102 11.1365 37.8712 11.8014 37.1776L10.2855 35.7243ZM10.2132 41.1168C11.642 42.6865 14.0269 42.7181 15.4893 41.2195L13.9863 39.7529C13.3684 40.386 12.3818 40.3796 11.7662 39.7032L10.2132 41.1168ZM15.4885 41.2203L16.959 39.7166L15.4577 38.2484L13.9871 39.752L15.4885 41.2203ZM16.9598 39.7158C18.398 38.2421 18.4054 35.8449 17.0448 34.3235L15.4795 35.7234C16.1275 36.448 16.099 37.5911 15.4569 38.2492L16.9598 39.7158ZM23.2257 35.7251C21.8056 34.165 19.4336 34.0932 17.9611 35.6291L19.477 37.0824C20.0848 36.4485 21.0484 36.4528 21.6727 37.1387L23.2257 35.7251ZM17.964 35.6262L13.642 40.0992L15.1522 41.5584L19.4742 37.0854L17.964 35.6262ZM13.6391 40.1021C12.2238 41.5785 12.164 43.9798 13.5728 45.5012L15.1137 44.0745C14.4781 43.388 14.4901 42.249 15.155 41.5554L13.6391 40.1021ZM13.5668 45.4947C14.9956 47.0643 17.3804 47.096 18.8429 45.5973L17.3399 44.1307C16.722 44.7638 15.7354 44.7574 15.1198 44.0811L13.5668 45.4947ZM18.8464 45.5936L23.1505 41.1397L21.6404 39.6804L17.3363 44.1343L18.8464 45.5936ZM23.1534 41.1367C24.5765 39.6523 24.6009 37.2368 23.2259 35.7254L21.6725 37.1385C22.3062 37.835 22.2947 38.9979 21.6375 39.6834L23.1534 41.1367ZM27.2846 39.4052C25.8662 37.8205 23.4947 37.7473 22.0206 39.2579L23.5235 40.7246C24.1297 40.1034 25.0939 40.1064 25.7198 40.8058L27.2846 39.4052ZM22.0161 39.2625L18.0528 43.3739L19.5647 44.8313L23.528 40.72L22.0161 39.2625ZM18.0635 43.3629C16.6084 44.8288 16.567 47.2303 17.9364 48.7616L19.5017 47.3618C18.8626 46.647 18.8929 45.5083 19.5539 44.8423L18.0635 43.3629ZM17.9364 48.7616C19.3372 50.3281 21.7271 50.4196 23.2189 48.89L21.7155 47.4238C21.0911 48.064 20.1094 48.0413 19.5017 47.3618L17.9364 48.7616ZM23.2231 48.8856L27.1685 44.7933L25.6566 43.3358L21.7113 47.4281L23.2231 48.8856ZM27.1577 44.8043C28.6129 43.3384 28.6543 40.9368 27.2849 39.4055L25.7195 40.8054C26.3587 41.5201 26.3284 42.6589 25.6674 43.3248L27.1577 44.8043ZM29.8612 44.5379C28.4348 42.9709 26.0396 42.9292 24.5903 44.4675L26.1187 45.9076C26.7138 45.276 27.6901 45.2724 28.3082 45.9514L29.8612 44.5379ZM24.6032 44.454L23.581 45.5009L25.0835 46.968L26.1057 45.9211L24.6032 44.454ZM23.5743 45.5078C22.1506 46.9928 22.1253 49.3942 23.526 50.9069L25.0668 49.4801C24.4231 48.7849 24.4336 47.6459 25.0902 46.9611L23.5743 45.5078ZM23.5199 50.9003C24.9512 52.4727 27.3465 52.5036 28.8087 50.9516L27.2803 49.5115C26.6623 50.1675 25.6861 50.1603 25.0729 49.4867L23.5199 50.9003ZM28.7955 50.9654L29.7998 49.9375L28.2978 48.4699L27.2935 49.4978L28.7955 50.9654ZM29.813 49.9238C31.2106 48.4405 31.2356 46.0488 29.8614 44.5381L28.308 45.9512C28.9423 46.6485 28.9314 47.7971 28.2846 48.4837L29.813 49.9238ZM49.1957 26.5557C47.5686 26.9136 46.6916 26.8413 46.0528 26.6296C45.3463 26.3955 44.8381 25.9831 43.8186 25.3002L42.65 27.045C43.4776 27.5993 44.3324 28.2719 45.3923 28.6231C46.5199 28.9967 47.8129 29.0101 49.6469 28.6066L49.1957 26.5557ZM17.9491 2.72004L23.2117 8.30549L24.7401 6.86541L19.4776 1.27996L17.9491 2.72004ZM23.2117 6.86541L6.49833 24.6043L8.02677 26.0443L24.7401 8.30549L23.2117 6.86541ZM8.02677 24.6043L2.76422 19.0188L1.23578 20.4589L6.49833 26.0443L8.02677 24.6043ZM2.76422 20.4589L19.4776 2.72004L17.9491 1.27996L1.23578 19.0188L2.76422 20.4589ZM67.2358 18.8407L61.9732 24.4262L63.5017 25.8663L68.7642 20.2808L67.2358 18.8407ZM63.5017 24.4262L47.1307 7.05074L45.6022 8.49083L61.9732 25.8663L63.5017 24.4262ZM47.1307 8.49083L52.3932 2.90538L50.8648 1.46529L45.6022 7.05074L47.1307 8.49083ZM50.8648 2.90538L67.2358 20.2808L68.7642 18.8407L52.3932 1.46529L50.8648 2.90538Z" fill="#FFFFFA"/>
</svg>

