<svg width="70" height="79" viewBox="0 0 70 79" fill="none" xmlns="http://www.w3.org/2000/svg">
<path d="M40.1745 37.1009C40.9833 37.9097 42.1156 38.3949 43.2479 38.2332C45.3507 37.9097 47.13 39.5272 47.2918 41.6301C47.2918 42.7624 47.9388 43.8947 48.9094 44.5417C50.6887 45.674 51.0122 48.1003 49.8799 49.7179C49.2329 50.6884 48.9093 51.8207 49.3946 52.953C50.0416 54.8941 48.7476 56.9969 46.8065 57.4822C45.6742 57.8057 44.7037 58.4527 44.3802 59.585C43.5714 61.5261 41.3068 62.3348 39.5275 61.3643C38.557 60.879 37.2629 60.879 36.2924 61.3643C34.5131 62.3348 32.2485 61.5261 31.4397 59.585C30.9544 58.4527 29.9839 57.6439 29.0134 57.4822C26.9105 56.9969 25.7782 54.8941 26.4252 52.953C26.7488 51.8207 26.587 50.6884 25.7782 49.7179C24.4842 48.1003 24.9694 45.674 26.7488 44.5417C27.7193 43.8947 28.3663 42.9241 28.3663 41.6301C28.5281 39.5272 30.3074 37.9097 32.4102 38.2332C33.5425 38.3949 34.6748 37.9097 35.4836 37.1009C36.2924 35.6451 38.7187 35.6451 40.1745 37.1009Z" stroke="#FFFFFA" stroke-width="3" stroke-miterlimit="10"/>
<path d="M37.5863 53.762C40.2664 53.762 42.439 51.5894 42.439 48.9093C42.439 46.2293 40.2664 44.0566 37.5863 44.0566C34.9063 44.0566 32.7336 46.2293 32.7336 48.9093C32.7336 51.5894 34.9063 53.762 37.5863 53.762Z" stroke="#FFFFFA" stroke-width="3" stroke-miterlimit="10"/>
<path d="M42.439 61.8499V74.7903L37.5863 69.9377L32.7336 74.7903V61.8499" stroke="#FFFFFA" stroke-width="3" stroke-miterlimit="10"/>
<path d="M24.6458 21.4106H50.5267" stroke="#FFFFFA" stroke-width="3" stroke-miterlimit="10"/>
<path d="M31.1162 27.8809H44.0567" stroke="#FFFFFA" stroke-width="3" stroke-miterlimit="10"/>
<path d="M29.4985 68.32H6.85268C4.10283 68.32 2 66.2172 2 63.4673V60.2322H11.7054" stroke="#FFFFFA" stroke-width="3" stroke-miterlimit="10"/>
<path d="M60.2321 10.0879V63.4674C60.2321 66.2173 58.1293 68.3201 55.3794 68.3201H45.6741" stroke="#FFFFFA" stroke-width="3" stroke-miterlimit="10"/>
<path d="M6.85278 68.32C9.60264 68.32 11.7055 66.2172 11.7055 63.4673V6.85268C11.7055 4.10283 13.8083 2 16.5581 2C19.308 2 21.4108 4.10283 21.4108 6.85268V10.0878H68.3201V6.85268C68.3201 4.10283 66.2173 2 63.4674 2H16.5581" stroke="#FFFFFA" stroke-width="3" stroke-miterlimit="10"/>
</svg>

