<svg width="70" height="57" viewBox="0 0 70 57" fill="none" xmlns="http://www.w3.org/2000/svg">
<path d="M62.125 44.3516C64.276 43.4584 65.8984 41.4167 67.849 37.8802C62.6172 34.8177 56.875 36.6406 53.1562 43.1849" stroke="#FFFFFA" stroke-width="3" stroke-miterlimit="10" stroke-linecap="round" stroke-linejoin="round"/>
<path d="M45.6821 51.1694C49.3826 54.7059 54.8514 57.0939 61.7785 49.8569C57.203 45.4819 50.8957 45.7189 45.6821 51.1694Z" stroke="#FFFFFA" stroke-width="3" stroke-miterlimit="10" stroke-linecap="round" stroke-linejoin="round"/>
<path d="M64.2031 32.7214C66.4818 31.1355 68.1953 28.1824 68.5417 23.0053C62.2344 22.586 57.5313 26.8152 57.0391 34.3438" stroke="#FFFFFA" stroke-width="3" stroke-miterlimit="10" stroke-linecap="round" stroke-linejoin="round"/>
<path d="M62.7264 20.3075C64.2759 17.9923 64.7863 14.62 63.1821 9.66162C57.1665 11.5939 54.3592 17.2632 56.6743 24.4455" stroke="#FFFFFA" stroke-width="3" stroke-miterlimit="10" stroke-linecap="round" stroke-linejoin="round"/>
<path d="M7.87484 44.3516C5.7238 43.4584 4.1014 41.4167 2.15088 37.8802C7.38265 34.8177 13.1248 36.6406 16.8436 43.1849" stroke="#FFFFFA" stroke-width="3" stroke-miterlimit="10" stroke-linecap="round" stroke-linejoin="round"/>
<path d="M24.3175 51.1694C20.617 54.7059 15.1483 57.0939 8.22119 49.8569C12.7967 45.4819 19.104 45.7189 24.3175 51.1694Z" stroke="#FFFFFA" stroke-width="3" stroke-miterlimit="10" stroke-linecap="round" stroke-linejoin="round"/>
<path d="M5.79679 32.7214C3.51815 31.1355 1.80461 28.2006 1.45825 23.0053C7.76554 22.586 12.4687 26.8152 12.9609 34.3438" stroke="#FFFFFA" stroke-width="3" stroke-miterlimit="10" stroke-linecap="round" stroke-linejoin="round"/>
<path d="M7.27346 20.3075C5.72398 17.9923 5.21356 14.62 6.81773 9.66162C12.8334 11.5939 15.6406 17.2632 13.3255 24.4455" stroke="#FFFFFA" stroke-width="3" stroke-miterlimit="10" stroke-linecap="round" stroke-linejoin="round"/>
<path d="M34.9998 15.2944L39.0285 25.3387L49.5832 25.9038L41.5259 33.0132L44.005 43.0392L34.9998 37.7345L25.9946 43.0392L28.4738 33.0132L20.4165 25.9038L30.9712 25.3387L34.9998 15.2944Z" stroke="#FFFFFA" stroke-width="3" stroke-miterlimit="10" stroke-linecap="round" stroke-linejoin="round"/>
<path d="M35 1.45837V8.0391" stroke="#FFFFFA" stroke-width="3" stroke-miterlimit="10" stroke-linecap="round" stroke-linejoin="round"/>
<path d="M20.4165 6.47144L24.4634 11.6667" stroke="#FFFFFA" stroke-width="3" stroke-miterlimit="10" stroke-linecap="round" stroke-linejoin="round"/>
<path d="M49.5833 6.47144L45.5364 11.6667" stroke="#FFFFFA" stroke-width="3" stroke-miterlimit="10" stroke-linecap="round" stroke-linejoin="round"/>
</svg>

