<svg width="30" height="30" viewBox="0 0 30 30" fill="none" xmlns="http://www.w3.org/2000/svg">
<path fill-rule="evenodd" clip-rule="evenodd" d="M11.1335 5.506C11.3715 4.61573 12.1776 4.00073 13.095 4.00073H16.905C17.8224 4.00073 18.6285 4.61573 18.8665 5.506C18.8707 5.52147 18.8743 5.53706 18.8775 5.55276L19.1204 6.76846L19.1205 6.76876C19.2058 7.19434 19.5799 7.5 20 7.5H23.5C23.9142 7.5 24.25 7.83579 24.25 8.25C24.25 8.66421 23.9142 9 23.5 9H20H10H6.5C6.08579 9 5.75 8.66421 5.75 8.25C5.75 7.83579 6.08579 7.5 6.5 7.5H10C10.4201 7.5 10.7942 7.19435 10.8795 6.76876L10.8796 6.76854L10.8796 6.76846L11.1225 5.55276C11.1257 5.53706 11.1293 5.52147 11.1335 5.506ZM17.6496 7.063C17.6799 7.21445 17.7243 7.36057 17.7811 7.5H12.2189C12.2757 7.36057 12.3201 7.21445 12.3504 7.063L12.3505 7.0627L12.5877 5.87534C12.6556 5.65339 12.8607 5.50073 13.095 5.50073H16.905C17.1393 5.50073 17.3444 5.65339 17.4123 5.87534L17.6495 7.0627L17.6496 7.063ZM8.49596 11.1723C8.45305 10.7603 8.08428 10.4611 7.6723 10.504C7.26031 10.547 6.96112 10.9157 7.00404 11.3277L7.97391 20.6385C8.1729 22.5488 9.78308 24 11.7037 24H18.2963C20.2169 24 21.8271 22.5488 22.0261 20.6385L22.996 11.3277C23.0389 10.9157 22.7397 10.547 22.3277 10.504C21.9157 10.4611 21.547 10.7603 21.504 11.1723L20.5342 20.4831C20.4148 21.6293 19.4487 22.5 18.2963 22.5H11.7037C10.5513 22.5 9.58524 21.6293 9.46584 20.4831L8.49596 11.1723Z" fill="#252A34"/>
</svg>
